<mxfile host="app.diagrams.net" modified="2023-11-08T13:01:04.328Z" agent="Mozilla/5.0 (Windows NT 10.0; Win64; x64) AppleWebKit/537.36 (KHTML, like Gecko) Chrome/119.0.0.0 Safari/537.36 Edg/119.0.0.0" etag="ixUt9d9TI3OibBZ227Hm" version="22.0.8" type="github">
  <diagram name="第 1 页" id="OLtmOnj1G0xmocBiT_f8">
    <mxGraphModel dx="1374" dy="760" grid="1" gridSize="10" guides="1" tooltips="1" connect="1" arrows="1" fold="1" page="1" pageScale="1" pageWidth="827" pageHeight="1169" math="0" shadow="0">
      <root>
        <mxCell id="0" />
        <mxCell id="1" parent="0" />
        <mxCell id="zD0eJCW0B57OZEV-lel7-20" value="用户" style="shape=umlActor;verticalLabelPosition=bottom;verticalAlign=top;html=1;outlineConnect=0;" vertex="1" parent="1">
          <mxGeometry x="210" y="250" width="30" height="60" as="geometry" />
        </mxCell>
        <mxCell id="zD0eJCW0B57OZEV-lel7-21" value="登录" style="ellipse;whiteSpace=wrap;html=1;" vertex="1" parent="1">
          <mxGeometry y="230" width="120" height="80" as="geometry" />
        </mxCell>
        <mxCell id="zD0eJCW0B57OZEV-lel7-22" style="edgeStyle=orthogonalEdgeStyle;rounded=0;orthogonalLoop=1;jettySize=auto;html=1;exitX=1;exitY=0.5;exitDx=0;exitDy=0;entryX=0.917;entryY=0.504;entryDx=0;entryDy=0;entryPerimeter=0;strokeColor=none;" edge="1" parent="1" source="zD0eJCW0B57OZEV-lel7-21" target="zD0eJCW0B57OZEV-lel7-21">
          <mxGeometry relative="1" as="geometry" />
        </mxCell>
        <mxCell id="zD0eJCW0B57OZEV-lel7-27" value="" style="endArrow=classic;html=1;rounded=0;entryX=0.986;entryY=0.632;entryDx=0;entryDy=0;entryPerimeter=0;exitX=0.5;exitY=0.5;exitDx=0;exitDy=0;exitPerimeter=0;" edge="1" parent="1" source="zD0eJCW0B57OZEV-lel7-20" target="zD0eJCW0B57OZEV-lel7-21">
          <mxGeometry width="50" height="50" relative="1" as="geometry">
            <mxPoint x="190" y="340" as="sourcePoint" />
            <mxPoint x="240" y="290" as="targetPoint" />
          </mxGeometry>
        </mxCell>
        <mxCell id="zD0eJCW0B57OZEV-lel7-30" value="" style="endArrow=block;endSize=16;endFill=0;html=1;rounded=0;entryX=0.75;entryY=0.1;entryDx=0;entryDy=0;entryPerimeter=0;exitX=0.5;exitY=0.5;exitDx=0;exitDy=0;exitPerimeter=0;" edge="1" parent="1" source="zD0eJCW0B57OZEV-lel7-31" target="zD0eJCW0B57OZEV-lel7-20">
          <mxGeometry width="160" relative="1" as="geometry">
            <mxPoint x="320" y="240" as="sourcePoint" />
            <mxPoint x="370" y="330" as="targetPoint" />
          </mxGeometry>
        </mxCell>
        <mxCell id="zD0eJCW0B57OZEV-lel7-31" value="学生" style="shape=umlActor;verticalLabelPosition=bottom;verticalAlign=top;html=1;" vertex="1" parent="1">
          <mxGeometry x="414" y="150" width="30" height="60" as="geometry" />
        </mxCell>
        <mxCell id="zD0eJCW0B57OZEV-lel7-34" value="Extends" style="endArrow=block;endSize=16;endFill=0;html=1;rounded=0;" edge="1" parent="1">
          <mxGeometry width="160" relative="1" as="geometry">
            <mxPoint x="145" y="140" as="sourcePoint" />
            <mxPoint x="305" y="140" as="targetPoint" />
          </mxGeometry>
        </mxCell>
        <mxCell id="zD0eJCW0B57OZEV-lel7-35" value="选报课程" style="ellipse;whiteSpace=wrap;html=1;" vertex="1" parent="1">
          <mxGeometry x="580" y="20" width="120" height="80" as="geometry" />
        </mxCell>
        <mxCell id="zD0eJCW0B57OZEV-lel7-36" value="" style="endArrow=classic;html=1;rounded=0;entryX=0;entryY=0.5;entryDx=0;entryDy=0;exitX=0.75;exitY=0.1;exitDx=0;exitDy=0;exitPerimeter=0;" edge="1" parent="1" source="zD0eJCW0B57OZEV-lel7-31" target="zD0eJCW0B57OZEV-lel7-35">
          <mxGeometry width="50" height="50" relative="1" as="geometry">
            <mxPoint x="470" y="170" as="sourcePoint" />
            <mxPoint x="520" y="120" as="targetPoint" />
          </mxGeometry>
        </mxCell>
        <mxCell id="zD0eJCW0B57OZEV-lel7-37" value="" style="endArrow=classic;html=1;rounded=0;exitX=0.5;exitY=0.5;exitDx=0;exitDy=0;exitPerimeter=0;" edge="1" parent="1" source="zD0eJCW0B57OZEV-lel7-31" target="zD0eJCW0B57OZEV-lel7-38">
          <mxGeometry width="50" height="50" relative="1" as="geometry">
            <mxPoint x="450" y="300" as="sourcePoint" />
            <mxPoint x="500" y="250" as="targetPoint" />
          </mxGeometry>
        </mxCell>
        <mxCell id="zD0eJCW0B57OZEV-lel7-38" value="查询成绩" style="ellipse;whiteSpace=wrap;html=1;" vertex="1" parent="1">
          <mxGeometry x="580" y="130" width="120" height="80" as="geometry" />
        </mxCell>
        <mxCell id="zD0eJCW0B57OZEV-lel7-41" value="" style="endArrow=classic;html=1;rounded=0;exitX=0.5;exitY=0.5;exitDx=0;exitDy=0;exitPerimeter=0;entryX=0;entryY=0.5;entryDx=0;entryDy=0;" edge="1" parent="1" source="zD0eJCW0B57OZEV-lel7-31" target="zD0eJCW0B57OZEV-lel7-42">
          <mxGeometry width="50" height="50" relative="1" as="geometry">
            <mxPoint x="410" y="390" as="sourcePoint" />
            <mxPoint x="460" y="340" as="targetPoint" />
          </mxGeometry>
        </mxCell>
        <mxCell id="zD0eJCW0B57OZEV-lel7-42" value="更改个人信息" style="ellipse;whiteSpace=wrap;html=1;" vertex="1" parent="1">
          <mxGeometry x="580" y="250" width="120" height="80" as="geometry" />
        </mxCell>
        <mxCell id="zD0eJCW0B57OZEV-lel7-43" value="" style="endArrow=block;endSize=16;endFill=0;html=1;rounded=0;entryX=1;entryY=0.5;entryDx=0;entryDy=0;fontStyle=1" edge="1" parent="1" target="zD0eJCW0B57OZEV-lel7-42">
          <mxGeometry width="160" relative="1" as="geometry">
            <mxPoint x="810" y="230" as="sourcePoint" />
            <mxPoint x="640" y="270" as="targetPoint" />
          </mxGeometry>
        </mxCell>
        <mxCell id="zD0eJCW0B57OZEV-lel7-44" value="修改密码" style="ellipse;whiteSpace=wrap;html=1;fontStyle=1" vertex="1" parent="1">
          <mxGeometry x="810" y="190" width="120" height="80" as="geometry" />
        </mxCell>
        <mxCell id="zD0eJCW0B57OZEV-lel7-45" value="" style="endArrow=block;endSize=16;endFill=0;html=1;rounded=0;entryX=1;entryY=0.5;entryDx=0;entryDy=0;fontStyle=1;exitX=0;exitY=0.5;exitDx=0;exitDy=0;" edge="1" parent="1" source="zD0eJCW0B57OZEV-lel7-46">
          <mxGeometry width="160" relative="1" as="geometry">
            <mxPoint x="810" y="350" as="sourcePoint" />
            <mxPoint x="700" y="300" as="targetPoint" />
          </mxGeometry>
        </mxCell>
        <mxCell id="zD0eJCW0B57OZEV-lel7-46" value="修改电话号码" style="ellipse;whiteSpace=wrap;html=1;fontStyle=1" vertex="1" parent="1">
          <mxGeometry x="810" y="280" width="120" height="80" as="geometry" />
        </mxCell>
        <mxCell id="zD0eJCW0B57OZEV-lel7-47" value="" style="endArrow=block;endSize=16;endFill=0;html=1;rounded=0;entryX=0.5;entryY=0.5;entryDx=0;entryDy=0;entryPerimeter=0;exitX=0.5;exitY=0.5;exitDx=0;exitDy=0;exitPerimeter=0;" edge="1" parent="1" source="zD0eJCW0B57OZEV-lel7-48" target="zD0eJCW0B57OZEV-lel7-20">
          <mxGeometry width="160" relative="1" as="geometry">
            <mxPoint x="327" y="680" as="sourcePoint" />
            <mxPoint x="240" y="696" as="targetPoint" />
          </mxGeometry>
        </mxCell>
        <mxCell id="zD0eJCW0B57OZEV-lel7-48" value="教师" style="shape=umlActor;verticalLabelPosition=bottom;verticalAlign=top;html=1;" vertex="1" parent="1">
          <mxGeometry x="414" y="490" width="30" height="60" as="geometry" />
        </mxCell>
        <mxCell id="zD0eJCW0B57OZEV-lel7-49" value="" style="endArrow=classic;html=1;rounded=0;entryX=0;entryY=0.5;entryDx=0;entryDy=0;exitX=0.75;exitY=0.1;exitDx=0;exitDy=0;exitPerimeter=0;" edge="1" parent="1" source="zD0eJCW0B57OZEV-lel7-48" target="zD0eJCW0B57OZEV-lel7-58">
          <mxGeometry width="50" height="50" relative="1" as="geometry">
            <mxPoint x="431" y="530" as="sourcePoint" />
            <mxPoint x="541" y="420" as="targetPoint" />
          </mxGeometry>
        </mxCell>
        <mxCell id="zD0eJCW0B57OZEV-lel7-50" value="" style="endArrow=classic;html=1;rounded=0;exitX=0.5;exitY=0.5;exitDx=0;exitDy=0;exitPerimeter=0;" edge="1" parent="1" source="zD0eJCW0B57OZEV-lel7-48" target="zD0eJCW0B57OZEV-lel7-51">
          <mxGeometry width="50" height="50" relative="1" as="geometry">
            <mxPoint x="411" y="660" as="sourcePoint" />
            <mxPoint x="461" y="610" as="targetPoint" />
          </mxGeometry>
        </mxCell>
        <mxCell id="zD0eJCW0B57OZEV-lel7-51" value="给学生课程打分" style="ellipse;whiteSpace=wrap;html=1;" vertex="1" parent="1">
          <mxGeometry x="580" y="520" width="120" height="80" as="geometry" />
        </mxCell>
        <mxCell id="zD0eJCW0B57OZEV-lel7-58" value="接收学生所选课程" style="ellipse;whiteSpace=wrap;html=1;" vertex="1" parent="1">
          <mxGeometry x="580" y="400" width="120" height="80" as="geometry" />
        </mxCell>
        <mxCell id="zD0eJCW0B57OZEV-lel7-61" value="Extends" style="endArrow=block;endSize=16;endFill=0;html=1;rounded=0;entryX=1;entryY=1;entryDx=0;entryDy=0;entryPerimeter=0;exitX=0.25;exitY=0.1;exitDx=0;exitDy=0;exitPerimeter=0;" edge="1" parent="1" source="zD0eJCW0B57OZEV-lel7-62" target="zD0eJCW0B57OZEV-lel7-20">
          <mxGeometry width="160" relative="1" as="geometry">
            <mxPoint x="280" y="580" as="sourcePoint" />
            <mxPoint x="440" y="580" as="targetPoint" />
          </mxGeometry>
        </mxCell>
        <mxCell id="zD0eJCW0B57OZEV-lel7-62" value="Actor" style="shape=umlActor;verticalLabelPosition=bottom;verticalAlign=top;html=1;outlineConnect=0;" vertex="1" parent="1">
          <mxGeometry x="414" y="650" width="30" height="60" as="geometry" />
        </mxCell>
      </root>
    </mxGraphModel>
  </diagram>
</mxfile>
